<?xml version="1.0" standalone="no"?>
<!DOCTYPE svg PUBLIC "-//W3C//DTD SVG 20010904//EN"
 "http://www.w3.org/TR/2001/REC-SVG-20010904/DTD/svg10.dtd">
<svg version="1.0" xmlns="http://www.w3.org/2000/svg"
 width="576.000000pt" height="212.000000pt" viewBox="0 0 576.000000 212.000000"
 preserveAspectRatio="xMidYMid meet">

<g transform="translate(0.000000,212.000000) scale(0.100000,-0.100000)"
fill="#000000" stroke="none">
<path d="M812 1873 c-5 -10 -21 -49 -35 -88 -14 -38 -38 -101 -52 -140 -15
-38 -46 -124 -70 -190 -24 -66 -105 -286 -180 -490 -76 -203 -142 -382 -147
-397 -9 -25 -15 -28 -54 -28 -40 0 -44 -2 -44 -25 l0 -25 150 0 150 0 0 25 c0
24 -2 25 -70 25 -38 0 -70 3 -70 6 0 9 131 377 142 397 8 15 27 17 176 17 92
0 176 -3 188 -6 16 -4 32 -42 84 -197 34 -106 65 -197 67 -204 3 -8 -15 -13
-59 -15 -57 -3 -63 -5 -66 -26 l-3 -22 318 2 c310 3 318 3 318 23 0 16 -8 21
-44 25 -40 4 -45 9 -57 40 -7 19 -40 111 -73 204 -34 93 -60 171 -58 172 2 2
204 7 450 10 311 5 447 4 447 -3 0 -6 -18 -64 -39 -129 -22 -66 -42 -136 -46
-156 -9 -50 -74 -111 -113 -106 -21 2 -31 13 -46 45 -12 27 -26 43 -37 43 -10
0 -36 -21 -58 -47 -45 -53 -45 -53 -31 32 5 33 7 68 4 77 -14 44 -68 3 -143
-106 -35 -51 -48 -56 -31 -11 11 29 6 46 -9 29 -11 -12 -41 -103 -41 -125 0
-41 22 -23 84 69 67 100 111 150 122 139 4 -3 -1 -38 -10 -78 -29 -127 -16
-140 57 -59 45 50 67 62 67 36 0 -22 50 -76 69 -76 10 0 35 12 56 26 l38 25
-6 -35 c-9 -59 18 -43 42 24 29 79 65 122 100 118 22 -3 26 -9 29 -39 3 -34 0
-38 -42 -63 -48 -28 -92 -87 -82 -111 15 -40 92 7 122 75 12 27 27 43 47 50
53 18 60 14 52 -30 -18 -105 73 -119 173 -27 l22 20 0 -47 c0 -42 2 -47 15
-36 8 7 15 18 15 24 0 6 13 38 29 71 28 60 79 115 107 115 8 0 14 5 14 10 0
27 -48 6 -92 -40 l-48 -50 6 40 c8 50 -11 55 -20 6 -13 -69 -146 -175 -182
-145 -20 16 -18 69 2 69 28 0 76 57 72 87 -5 42 -39 42 -74 0 -36 -42 -104
-59 -104 -26 0 11 -5 30 -11 42 -25 47 -55 48 -105 5 l-37 -32 8 34 c10 49 73
242 85 260 8 12 52 16 257 21 l248 5 -242 2 c-134 1 -243 6 -243 10 0 5 7 17
15 28 17 23 19 34 5 34 -6 0 -20 -16 -31 -35 l-21 -35 -137 0 c-76 0 -287 3
-469 7 l-330 6 -31 81 c-17 45 -73 198 -125 341 -52 143 -109 301 -127 350
-18 50 -37 96 -42 103 -6 7 -36 12 -83 12 -60 0 -75 -3 -82 -17z m73 -860 c-7
-19 -314 -18 -321 0 -4 11 144 439 162 469 9 14 166 -451 159 -469z m1585
-341 c0 -16 -32 -52 -46 -52 -18 0 -18 10 2 38 14 21 44 31 44 14z m-210 -99
c0 -15 -52 -73 -66 -73 -21 0 -17 11 18 47 30 31 48 41 48 26z"/>
<path d="M1382 1248 l3 -133 25 -3 c22 -2 23 -1 7 9 -14 8 -18 22 -17 57 4
113 -1 202 -10 202 -7 0 -10 -47 -8 -132z"/>
<path d="M2480 1330 c0 -47 -1 -50 -19 -40 -73 39 -143 -48 -107 -133 22 -53
64 -71 102 -42 18 13 16 14 -16 9 -47 -8 -65 14 -65 76 0 56 17 80 56 80 37 0
51 -27 49 -93 -3 -71 -2 -77 15 -77 13 0 15 22 15 135 0 113 -2 135 -15 135
-11 0 -15 -12 -15 -50z"/>
<path d="M2570 1345 c0 -9 5 -15 11 -13 6 2 11 8 11 13 0 5 -5 11 -11 13 -6 2
-11 -4 -11 -13z"/>
<path d="M1461 1276 c-12 -13 -24 -38 -27 -57 -17 -103 95 -162 133 -71 41
100 -40 198 -106 128z m95 -21 c12 -18 15 -38 11 -66 -6 -48 -22 -69 -52 -69
-30 0 -46 21 -52 69 -7 51 16 91 52 91 15 0 31 -10 41 -25z"/>
<path d="M1645 1275 c-43 -42 -30 -144 21 -167 20 -9 30 -9 45 0 28 18 39 15
39 -11 0 -30 -27 -67 -49 -67 -10 0 -31 10 -47 22 -25 20 -27 20 -14 3 22 -30
32 -35 67 -35 52 0 63 26 63 157 l0 113 -24 -6 c-13 -3 -27 -1 -30 5 -12 19
-46 12 -71 -14z m86 -12 c18 -20 17 -106 0 -127 -18 -22 -58 -20 -71 3 -13 25
-13 97 0 122 13 23 53 25 71 2z"/>
<path d="M1842 1293 c-20 -8 -42 -59 -42 -98 0 -27 8 -44 29 -66 36 -35 52
-36 88 -5 25 21 28 31 28 81 0 48 -4 60 -24 76 -22 18 -52 23 -79 12z m77 -26
c36 -44 13 -147 -33 -147 -14 0 -31 9 -40 22 -21 29 -21 102 0 122 19 20 58
21 73 3z"/>
<path d="M1997 1293 c-11 -11 -8 -273 3 -273 6 0 10 23 10 50 0 56 -1 55 35
38 68 -31 122 71 80 152 -18 34 -54 47 -85 30 -17 -9 -24 -9 -29 -1 -4 6 -10
8 -14 4z m107 -55 c6 -24 6 -52 0 -75 -18 -75 -94 -45 -94 37 0 49 25 82 58
78 22 -2 29 -10 36 -40z"/>
<path d="M2223 1290 c-38 -15 -56 -55 -50 -107 5 -49 22 -69 66 -80 31 -8 75
16 79 42 3 18 2 18 -13 -2 -10 -14 -27 -23 -43 -23 -35 0 -49 10 -61 43 l-11
27 49 0 c64 0 81 7 81 35 0 47 -53 82 -97 65z m74 -39 c17 -35 9 -41 -48 -41
-39 0 -49 3 -49 17 0 51 74 69 97 24z"/>
<path d="M2576 1293 c-3 -3 -6 -46 -6 -95 0 -72 3 -88 15 -88 12 0 15 17 15
89 0 83 -7 111 -24 94z"/>
<path d="M2678 1288 c-27 -9 -58 -60 -58 -95 0 -31 38 -82 66 -89 32 -8 78 13
80 36 1 9 -1 10 -3 3 -5 -15 -43 -26 -69 -21 -20 4 -52 53 -42 64 4 4 29 6 55
6 67 -2 78 7 64 51 -14 41 -51 59 -93 45z m66 -24 c9 -8 16 -24 16 -35 0 -16
-7 -19 -55 -19 -60 0 -61 1 -44 33 21 40 56 49 83 21z"/>
<path d="M3191 1099 c-112 -33 -192 -142 -194 -264 0 -71 22 -123 89 -202 24
-28 44 -55 44 -60 -1 -4 -26 -26 -57 -48 -76 -54 -133 -127 -133 -170 0 -21 6
-35 16 -39 77 -29 240 58 260 140 4 15 -2 40 -14 66 -12 23 -19 45 -17 49 7
11 133 59 155 59 17 0 19 -4 14 -27 -12 -47 -8 -82 11 -103 31 -35 69 -24 139
39 l28 26 -7 -52 c-11 -85 14 -67 74 52 28 58 58 105 65 105 7 0 18 -23 25
-55 15 -65 33 -79 78 -60 30 13 32 12 37 -11 6 -24 39 -39 73 -32 10 2 27 18
38 35 13 22 33 36 59 43 21 6 40 9 42 7 3 -2 0 -24 -5 -48 -10 -44 -7 -64 10
-54 5 4 9 22 9 42 0 32 2 35 23 29 58 -18 94 -17 145 2 l54 21 -4 -42 c-1 -23
2 -44 7 -47 6 -3 11 13 13 36 l3 42 40 -16 c38 -15 90 -11 150 13 12 5 18 -2
22 -24 9 -42 41 -41 84 1 l33 32 0 -36 c0 -20 3 -43 6 -52 11 -29 52 -18 99
25 l45 42 11 -32 c20 -56 78 -55 146 4 23 19 44 35 48 35 4 0 4 -18 0 -39 -7
-41 10 -68 21 -34 40 117 101 203 145 203 10 0 19 5 19 10 0 6 -12 10 -27 10
-19 0 -40 -14 -71 -47 l-45 -48 6 38 c4 27 3 37 -6 34 -7 -2 -13 -15 -15 -30
-4 -36 -81 -119 -131 -142 -33 -14 -43 -15 -56 -5 -27 23 -18 59 19 76 49 24
84 92 55 109 -25 16 -58 -7 -99 -70 -46 -70 -114 -139 -133 -132 -20 6 -19 43
3 122 20 72 20 108 0 75 -7 -12 -12 -12 -28 3 -27 25 -58 21 -79 -10 -64 -94
-140 -135 -209 -113 -18 6 -36 16 -40 21 -16 26 89 118 121 105 9 -3 15 0 15
9 0 21 -39 19 -79 -6 -18 -11 -35 -19 -37 -17 -11 12 81 277 112 323 16 22 18
45 6 45 -23 0 -110 -222 -152 -388 -15 -57 -68 -94 -140 -95 -92 -1 -104 48
-27 104 30 21 48 28 65 24 17 -4 23 -2 20 7 -7 22 -46 21 -84 -2 -19 -12 -37
-21 -39 -19 -7 8 47 176 81 254 19 44 38 86 41 93 3 6 0 12 -6 12 -6 0 -22
-22 -35 -49 -32 -62 -101 -263 -111 -319 -7 -43 -26 -62 -64 -62 -15 0 -23 10
-31 38 -14 52 -52 72 -89 44 -14 -10 -29 -32 -33 -48 -4 -16 -21 -43 -38 -59
-39 -37 -62 -26 -72 35 -9 55 -31 79 -56 64 -9 -6 -34 -40 -54 -75 -41 -71
-44 -69 -23 11 38 149 95 316 126 368 21 37 25 67 8 56 -26 -16 -111 -235
-149 -383 -16 -62 -116 -164 -156 -159 -28 3 -29 5 -29 54 1 39 7 62 28 93 29
44 52 50 52 14 0 -12 3 -24 7 -29 12 -11 21 23 14 51 -9 35 -45 33 -80 -4 -16
-16 -44 -32 -64 -36 -19 -3 -67 -21 -105 -38 l-70 -31 -39 45 c-61 70 -89 123
-95 182 -15 144 92 267 230 267 49 0 58 -3 81 -31 21 -24 26 -41 26 -82 0 -53
-27 -126 -57 -159 -9 -10 -13 -21 -10 -24 23 -23 88 102 89 172 3 120 -72 177
-191 143z m1410 -423 c10 -20 8 -30 -11 -58 -32 -46 -62 -78 -73 -78 -16 0 -1
87 22 124 26 42 47 46 62 12z m-683 -25 c5 -30 -8 -42 -36 -35 -27 8 -28 21
-4 45 22 22 36 19 40 -10z m932 16 c0 -17 -38 -52 -47 -44 -9 10 18 57 34 57
7 0 13 -6 13 -13z m-967 -74 c21 -7 22 -27 1 -47 -32 -32 -71 -6 -60 40 5 19
11 24 24 19 9 -4 25 -10 35 -12z m-709 -68 c37 -57 9 -118 -73 -160 -134 -68
-185 -23 -88 78 44 45 124 107 137 107 4 0 15 -11 24 -25z"/>
<path d="M5250 975 c-7 -24 -18 -49 -24 -54 -6 -5 -48 -15 -94 -21 -78 -12
-103 -22 -84 -34 5 -3 42 1 81 10 40 8 76 12 81 9 5 -3 2 -24 -6 -48 -55 -154
-87 -382 -64 -451 14 -42 48 -69 82 -64 21 4 19 6 -14 20 -52 23 -65 72 -50
193 14 107 74 331 94 352 12 11 45 15 144 16 71 1 141 -1 157 -6 37 -10 34 8
-4 23 -35 15 -142 17 -233 6 -58 -8 -59 -8 -52 16 15 54 18 78 9 78 -6 0 -16
-20 -23 -45z"/>
</g>
</svg>
