<?xml version="1.0" encoding="utf-8"?>
<!-- Generator: Adobe Illustrator 28.2.0, SVG Export Plug-In . SVG Version: 6.00 Build 0)  -->
<svg version="1.1" xmlns="http://www.w3.org/2000/svg" xmlns:xlink="http://www.w3.org/1999/xlink" x="0px" y="0px"
	 viewBox="0 0 841.89 595.28" style="enable-background:new 0 0 841.89 595.28;" xml:space="preserve">
<style type="text/css">
	.st0{fill:#B7DBF5;}
	.st1{fill:#894F9A;}
	.st2{opacity:0.5;fill:#B7DBF5;}
	.st3{opacity:0.2;fill:#894F9A;}
	.st4{fill:#FFFFFF;}
	.st5{fill:none;stroke:#000000;stroke-width:0.25;stroke-miterlimit:10;}
	.st6{opacity:0.5;fill:none;stroke:#B7DBF5;stroke-miterlimit:10;}
	.st7{fill:#F9B233;}
	.st8{fill:#020203;}
	.st9{fill:none;stroke:#000000;stroke-width:0.1;stroke-miterlimit:10;}
	.st10{fill:none;stroke:#B7DBF5;stroke-miterlimit:10;}
	.st11{fill:none;stroke:#000000;stroke-width:0.2;stroke-miterlimit:10;}
	.st12{stroke:#000000;stroke-width:0.2;stroke-miterlimit:10;}
	.st13{fill:none;stroke:#000000;stroke-width:0.4252;stroke-miterlimit:10;}
	.st14{opacity:0.5;fill:none;stroke:#000000;stroke-width:0.0567;stroke-miterlimit:10;}
	.st15{fill:none;stroke:#F9B233;stroke-miterlimit:10;}
	.st16{display:none;stroke:#000000;stroke-width:0.2;stroke-miterlimit:10;}
	.st17{stroke:#000000;stroke-width:0.2001;stroke-miterlimit:10;}
	.st18{fill:#F9B233;stroke:#F9B233;stroke-width:0.5669;stroke-miterlimit:10;}
	.st19{fill:#F9B233;stroke:#F9B233;stroke-width:0.4252;stroke-miterlimit:10;}
	.st20{fill:none;stroke:#000000;stroke-width:0.4252;stroke-linecap:round;stroke-miterlimit:10;}
	.st21{display:none;fill:#F9B233;stroke:#F9B233;stroke-width:0.5669;stroke-miterlimit:10;}
	.st22{display:none;fill:#F9B233;stroke:#F9B233;stroke-width:0.4252;stroke-miterlimit:10;}
	.st23{display:none;opacity:0.5;fill:none;stroke:#000000;stroke-width:0.4252;stroke-miterlimit:10;}
	.st24{fill:none;stroke:#F9B233;stroke-width:0.4252;stroke-linecap:round;stroke-miterlimit:10;}
	.st25{fill:#F9B233;stroke:#F9B233;stroke-width:0.652;stroke-miterlimit:10;}
	.st26{fill:none;stroke:#E94E1B;stroke-width:0.6803;stroke-miterlimit:10;}
	.st27{fill:none;stroke:#000000;stroke-width:0.1417;stroke-miterlimit:10;}
	.st28{fill:none;stroke:#E94E1B;stroke-width:0.3034;stroke-miterlimit:10;}
	.st29{fill:none;stroke:#E94E1B;stroke-width:0.208;stroke-miterlimit:10;}
	.st30{fill:none;stroke:#E94E1B;stroke-width:0.4034;stroke-miterlimit:10;}
	.st31{fill:none;stroke:#FFFFFF;stroke-width:0.2835;stroke-miterlimit:10;}
	.st32{fill:#2D2E83;stroke:#2D2E83;stroke-width:0.2;stroke-miterlimit:10;}
	.st33{fill:#2D2E83;stroke:#2D2E83;stroke-width:0.2001;stroke-miterlimit:10;}
	.st34{fill:none;stroke:#F9B233;stroke-width:0.4034;stroke-miterlimit:10;}
	.st35{fill:none;stroke:#F9B233;stroke-width:0.4252;stroke-miterlimit:10;}
	.st36{fill:#F9B233;stroke:#FFFFFF;stroke-miterlimit:10;}
	.st37{fill:#1D71B8;stroke:#1D71B8;stroke-width:0.2001;stroke-miterlimit:10;}
	.st38{fill:none;stroke:#1D71B8;stroke-width:0.4034;stroke-miterlimit:10;}
	.st39{fill:#1D71B8;}
	.st40{fill:none;stroke:#1D71B8;stroke-width:0.4252;stroke-linecap:round;stroke-miterlimit:10;}
	.st41{fill:none;stroke:#1D71B8;stroke-width:0.4252;stroke-miterlimit:10;}
	.st42{stroke:#000000;stroke-width:1.4698;stroke-miterlimit:10;}
	.st43{stroke:#000000;stroke-width:1.4707;stroke-miterlimit:10;}
	.st44{fill:#1D71B8;stroke:#1D71B8;stroke-width:1.4707;stroke-miterlimit:10;}
	.st45{fill:#F9B233;stroke:#F9B233;stroke-width:4.7912;stroke-miterlimit:10;}
	.st46{fill:none;stroke:#1D71B8;stroke-width:2.9643;stroke-miterlimit:10;}
	.st47{fill:none;stroke:#1D71B8;stroke-width:3.1247;stroke-miterlimit:10;}
	.st48{fill:#F6F6F6;}
	.st49{fill:#F9B233;stroke:#F9B233;stroke-width:0.6746;stroke-miterlimit:10;}
	.st50{fill:none;stroke:#FFFFFF;stroke-width:0.3672;stroke-linecap:round;stroke-miterlimit:10;}
	.st51{fill:#2D2E83;}
	.st52{fill:#662483;}
	.st53{fill:none;stroke:#F9B233;stroke-width:0.4208;stroke-miterlimit:10;}
	.st54{fill:none;stroke:#FFFFFF;stroke-width:1.4173;stroke-linecap:round;stroke-miterlimit:10;}
	.st55{fill:none;stroke:#FFFFFF;stroke-width:1.4173;stroke-miterlimit:10;}
	.st56{fill:none;stroke:#F9B233;stroke-width:0.2817;stroke-miterlimit:10;}
	.st57{fill:none;stroke:#2D2E83;stroke-width:0.2817;stroke-miterlimit:10;}
	.st58{fill:none;stroke:#F9B233;stroke-width:0.3672;stroke-linecap:round;stroke-miterlimit:10;}
	.st59{fill:none;stroke:#2D2E83;stroke-miterlimit:10;}
	.st60{fill:none;stroke:#2D2E83;stroke-width:0.2544;stroke-miterlimit:10;}
	.st61{fill:none;stroke:#FFFFFF;stroke-width:0.2135;stroke-miterlimit:10;}
	.st62{fill:#2D2E83;stroke:#2D2E83;stroke-width:0.744;stroke-miterlimit:10;}
	.st63{fill:#2D2E83;stroke:#2D2E83;stroke-width:0.7445;stroke-miterlimit:10;}
	.st64{fill:#F9B233;stroke:#F9B233;stroke-width:2.5099;stroke-miterlimit:10;}
	.st65{fill:none;stroke:#F9B233;stroke-width:1.5656;stroke-miterlimit:10;}
	.st66{fill:#2D2E83;stroke:#2D2E83;stroke-width:1.28;stroke-miterlimit:10;}
	.st67{fill:#2D2E83;stroke:#2D2E83;stroke-width:1.2808;stroke-miterlimit:10;}
	.st68{fill:#F9B233;stroke:#F9B233;stroke-width:4.3178;stroke-miterlimit:10;}
	.st69{fill:none;stroke:#F9B233;stroke-width:2.6935;stroke-miterlimit:10;}
	.st70{fill:#FFFFFF;stroke:#000000;stroke-miterlimit:10;}
	.st71{fill:#2E2A72;}
	.st72{fill:none;stroke:#000000;stroke-width:8.5039;stroke-linecap:round;stroke-miterlimit:10;}
	.st73{fill:#BE1622;}
	.st74{fill:#88C27A;}
	.st75{fill:#312783;}
	.st76{fill:#EA5B0C;}
	.st77{fill:#F18418;}
	.st78{fill:#F18413;}
	.st79{fill:#7182C0;}
	.st80{fill:#AFB5DC;}
	.st81{fill:#00A6D0;}
	.st82{fill:none;stroke:#000000;stroke-width:5.6693;stroke-miterlimit:10;}
	.st83{fill:none;stroke:#2E2A72;stroke-width:0.3419;stroke-miterlimit:10;}
	.st84{fill:none;stroke:#F6F6F6;stroke-width:0.6632;stroke-linecap:round;stroke-linejoin:round;stroke-miterlimit:10;}
	.st85{fill:none;stroke:#F6F6F6;stroke-width:1.2615;stroke-linecap:round;stroke-linejoin:round;stroke-miterlimit:10;}
	.st86{fill:none;stroke:#FFFFFF;stroke-width:5.6693;stroke-miterlimit:10;}
	.st87{fill:none;stroke:#E6007E;stroke-width:5.6693;stroke-miterlimit:10;}
	.st88{fill:url(#);}
	.st89{fill:#2E2A72;stroke:#F6F6F6;stroke-width:2.4511;stroke-miterlimit:10;}
	.st90{fill:#2E2A72;stroke:#F6F6F6;stroke-width:2.766;stroke-miterlimit:10;}
	.st91{fill:none;stroke:#FFFFFF;stroke-width:1.6836;stroke-miterlimit:10;}
	.st92{fill:none;stroke:#E6007E;stroke-width:1.6836;stroke-miterlimit:10;}
	.st93{fill:none;stroke:#88C27A;stroke-width:1.4173;stroke-miterlimit:10;}
	.st94{fill:none;stroke:#88C27A;stroke-width:1.3643;stroke-miterlimit:10;}
	.st95{fill:#2E2A72;stroke:#F6F6F6;stroke-width:0.9695;stroke-miterlimit:10;}
	.st96{fill:none;stroke:#2E2A72;stroke-width:0.6883;stroke-miterlimit:10;}
	.st97{fill:none;stroke:#FFFFFF;stroke-width:2.7046;stroke-miterlimit:10;}
	.st98{fill:none;stroke:#E6007E;stroke-width:2.7046;stroke-miterlimit:10;}
	.st99{fill:#FFFFFF;stroke:#FFFFFF;stroke-width:2.7046;stroke-miterlimit:10;}
	.st100{fill:#FFFFFF;stroke:#E6007E;stroke-width:2.7046;stroke-miterlimit:10;}
	.st101{fill:none;stroke:#FFFFFF;stroke-width:1.8601;stroke-miterlimit:10;}
	.st102{fill:none;stroke:#E6007E;stroke-width:1.8601;stroke-miterlimit:10;}
	.st103{fill:#2E2A72;stroke:#F6F6F6;stroke-width:1.2854;stroke-miterlimit:10;}
	.st104{fill:#2E2A72;stroke:#F6F6F6;stroke-width:1.0151;stroke-miterlimit:10;}
	.st105{clip-path:url(#SVGID_00000118397043902750265450000008155671794584079021_);}
	.st106{clip-path:url(#SVGID_00000078037727987252235520000003363718710299408264_);}
	.st107{clip-path:url(#SVGID_00000139981711782183623970000005138660636304047807_);}
	.st108{clip-path:url(#SVGID_00000085955369549550787690000004518913192842571422_);}
	.st109{clip-path:url(#SVGID_00000014626874618207096230000005812637059667415171_);}
	.st110{clip-path:url(#SVGID_00000122697524532361738220000002163856679963503295_);}
	.st111{clip-path:url(#SVGID_00000054228260797854151970000003512312925338318500_);}
	.st112{clip-path:url(#SVGID_00000034810199798823958550000000433640772826583965_);}
	.st113{clip-path:url(#SVGID_00000017487916437704939830000006785289825572267449_);}
	.st114{clip-path:url(#SVGID_00000065794908027716846740000013227205588692529029_);}
	.st115{clip-path:url(#SVGID_00000063634252483605175630000017490069117226209438_);}
	.st116{clip-path:url(#SVGID_00000070838091979204731370000011369699386173875384_);}
	.st117{clip-path:url(#SVGID_00000118372644292783055760000008963213325466367420_);}
	.st118{clip-path:url(#SVGID_00000108300845651830026890000011463436782868633778_);}
	.st119{clip-path:url(#SVGID_00000176730550512544460130000002428507035457193391_);}
	.st120{clip-path:url(#SVGID_00000026164513655820345340000002180750072575467171_);}
	.st121{clip-path:url(#SVGID_00000090287789693776684720000010327957746024990911_);}
	.st122{clip-path:url(#SVGID_00000094610169447854152230000006968173624608214717_);}
	.st123{clip-path:url(#SVGID_00000144296972049435829110000007047406206489997955_);}
	.st124{clip-path:url(#SVGID_00000163791732658955784390000006907459090262586525_);}
	.st125{clip-path:url(#SVGID_00000173142464138697836420000007338776946119497625_);}
	.st126{clip-path:url(#SVGID_00000161629959294957780640000000545255167027419825_);}
	.st127{clip-path:url(#SVGID_00000142134336648150104190000002650867821998206346_);}
	.st128{clip-path:url(#SVGID_00000177466647362445578700000013129800469801429143_);}
	.st129{clip-path:url(#SVGID_00000153679311691444854220000018283819368759924154_);}
	.st130{clip-path:url(#SVGID_00000050630131653305812310000008896903504916028588_);}
	.st131{clip-path:url(#SVGID_00000140000722864241769320000013702150938244462001_);}
	.st132{clip-path:url(#SVGID_00000105386037274384105150000015714823013014602881_);}
	.st133{clip-path:url(#SVGID_00000045591916776196417430000017820597127343271100_);}
	.st134{clip-path:url(#SVGID_00000008114838784768790190000005789069760026056612_);}
	.st135{clip-path:url(#SVGID_00000130631241986326835890000005761763598462586248_);}
	.st136{clip-path:url(#SVGID_00000123442320859610624040000015812510805314936733_);}
	.st137{clip-path:url(#SVGID_00000026124035312279861440000000309434873527873187_);}
	.st138{clip-path:url(#SVGID_00000116935836418573977810000015167089756659612801_);}
	.st139{clip-path:url(#SVGID_00000165236268665088670170000010044460915106255033_);}
	.st140{clip-path:url(#SVGID_00000150805929497229209870000017339360057974816434_);}
	.st141{clip-path:url(#SVGID_00000168080290789247377630000013093437293348408742_);}
	.st142{clip-path:url(#SVGID_00000045582018506947194950000013161660737636383670_);}
	.st143{clip-path:url(#SVGID_00000070114542033690714360000002705495347653986487_);}
	.st144{clip-path:url(#SVGID_00000045618050176414178600000006387689657180188090_);}
	.st145{clip-path:url(#SVGID_00000018203120688981579190000008415136045873981325_);}
	.st146{clip-path:url(#SVGID_00000027593326376618968520000003318448723799340952_);}
	.st147{clip-path:url(#SVGID_00000066505112943664506190000010302142146171551391_);}
	.st148{clip-path:url(#SVGID_00000062172873376899710630000009454836137872466362_);}
	.st149{clip-path:url(#SVGID_00000139273131327325321180000003699385135485376430_);}
	.st150{clip-path:url(#SVGID_00000109736259476897578920000006763938288943509162_);}
	.st151{clip-path:url(#SVGID_00000101794724345215119260000015535419917295528100_);}
	.st152{clip-path:url(#SVGID_00000043424449237429230800000000469571354666203278_);}
	.st153{clip-path:url(#SVGID_00000000195459313599044690000006688737580971258775_);}
	.st154{clip-path:url(#SVGID_00000029047761427950594350000006274163687732746146_);}
	.st155{clip-path:url(#SVGID_00000054964570976977862020000002504028143995571588_);}
	.st156{clip-path:url(#SVGID_00000058554565832877475340000007723920892814967999_);}
	.st157{clip-path:url(#SVGID_00000075879724926860269330000007201183921198506369_);}
	.st158{clip-path:url(#SVGID_00000098212325380023894900000003097243684105093514_);}
	.st159{clip-path:url(#SVGID_00000054230284808195996590000014760707543348056983_);}
	.st160{clip-path:url(#SVGID_00000081609239328938854430000000789674711655031477_);}
	.st161{clip-path:url(#SVGID_00000107555762961320885880000016720907408098170754_);}
	.st162{clip-path:url(#SVGID_00000021817077581044725790000015691008995832508046_);}
	.st163{clip-path:url(#SVGID_00000045592390267813305750000011506378400404399247_);}
	.st164{clip-path:url(#SVGID_00000020385479528840758980000014560221822360059070_);}
	.st165{clip-path:url(#SVGID_00000052790346821961004750000010709809867463548856_);}
	.st166{clip-path:url(#SVGID_00000119092558507071864990000004028917364569125519_);}
	.st167{clip-path:url(#SVGID_00000132807832017290124770000014891702708476913840_);}
	.st168{clip-path:url(#SVGID_00000126323905705225689330000009593354141897909889_);}
	.st169{clip-path:url(#SVGID_00000111161730290747316170000007054024255746375569_);}
	.st170{clip-path:url(#SVGID_00000102526144201140112130000014499760414968122798_);}
	.st171{clip-path:url(#SVGID_00000169519528442930446310000001777673429791496853_);}
	.st172{clip-path:url(#SVGID_00000133529510262720491680000005788055190377501844_);}
	.st173{clip-path:url(#SVGID_00000051350312535949293900000018281068203630767285_);}
	.st174{clip-path:url(#SVGID_00000172413398380236297030000004062418197696334494_);}
	.st175{clip-path:url(#SVGID_00000005251236020519543610000003061485399702349999_);}
	.st176{clip-path:url(#SVGID_00000037659624821295155710000005400927508702621613_);}
	.st177{clip-path:url(#SVGID_00000002371757645118914320000016553606819388638085_);}
	.st178{clip-path:url(#SVGID_00000003071492611308177210000016441262273974532020_);}
	.st179{clip-path:url(#SVGID_00000085245663580319185310000003943289234120930178_);}
	.st180{clip-path:url(#SVGID_00000098179403203751268400000016529406035345099694_);}
	.st181{clip-path:url(#SVGID_00000077283466524066987660000000748780521963064973_);}
	.st182{clip-path:url(#SVGID_00000067918925236213656130000002288912628870712722_);}
	.st183{clip-path:url(#SVGID_00000153683621236389427450000006332187733742278533_);}
	.st184{clip-path:url(#SVGID_00000124853866948268440720000012978830810011515276_);}
	.st185{clip-path:url(#SVGID_00000174575946302589356470000005166642864508280762_);}
	.st186{clip-path:url(#SVGID_00000080898874734431502880000005073605640480151487_);}
	.st187{clip-path:url(#SVGID_00000070826064797641482260000002679506400793949102_);}
	.st188{clip-path:url(#SVGID_00000111157821970429279100000003562476221368624279_);}
	.st189{clip-path:url(#SVGID_00000016769523242682197520000001236673677733947809_);}
	.st190{clip-path:url(#SVGID_00000055683134356684079730000009894703172838941835_);}
	.st191{clip-path:url(#SVGID_00000017483347725578563610000014918475918644364170_);}
	.st192{clip-path:url(#SVGID_00000147923222367494458270000017456616128046669229_);}
	.st193{clip-path:url(#SVGID_00000035528840399155034520000017141416449645572284_);}
	.st194{clip-path:url(#SVGID_00000026161635918264173270000008983650722539766457_);}
	.st195{clip-path:url(#SVGID_00000136387551514229698540000015700930550660223147_);}
	.st196{clip-path:url(#SVGID_00000103259224277641216080000000919279636541519794_);}
	.st197{clip-path:url(#SVGID_00000038415300229011512950000007260307406528162944_);}
	.st198{clip-path:url(#SVGID_00000130631027712884496850000000795862156662245031_);}
	.st199{clip-path:url(#SVGID_00000076579337010620699330000014827766820360194461_);}
	.st200{clip-path:url(#SVGID_00000123402930945768683400000007827105076633069465_);}
	.st201{clip-path:url(#SVGID_00000053542250713664332590000011155999516638500254_);}
	.st202{clip-path:url(#SVGID_00000128476884383986607690000001569269560934441128_);}
	.st203{clip-path:url(#SVGID_00000127011448938185083440000011401684233247477939_);}
	.st204{clip-path:url(#SVGID_00000178899336462614065620000011591263651632090808_);}
	.st205{clip-path:url(#SVGID_00000039102258069248184880000004527508025783390355_);}
	.st206{clip-path:url(#SVGID_00000045599515407026765200000015441660702389944713_);}
	.st207{clip-path:url(#SVGID_00000168813376224589998100000001771162676020691586_);}
	.st208{clip-path:url(#SVGID_00000064314089227209276550000005400851979098095257_);}
	.st209{clip-path:url(#SVGID_00000130623127362501062480000007506807439662119325_);}
	.st210{clip-path:url(#SVGID_00000086688957260647386750000017917618248225586327_);}
	.st211{clip-path:url(#SVGID_00000053547156234994746320000005151538519180521089_);}
	.st212{clip-path:url(#SVGID_00000133510245574988206180000000060881855866573754_);}
	.st213{clip-path:url(#SVGID_00000049933245473058771150000000567158076286119305_);}
	.st214{clip-path:url(#SVGID_00000139976851170720348650000008900769616660578463_);}
	.st215{clip-path:url(#SVGID_00000153681236798509291560000015009288558492642720_);}
	.st216{clip-path:url(#SVGID_00000022533633645312370800000010661077227056239759_);}
	.st217{clip-path:url(#SVGID_00000106142009191008367760000010439777504448439427_);}
	.st218{clip-path:url(#SVGID_00000162353048176145387040000014872585937981085845_);}
	.st219{clip-path:url(#SVGID_00000113322017307158366070000012668257716496441006_);}
	.st220{clip-path:url(#SVGID_00000159472264617607264640000009751504018237979801_);}
	.st221{clip-path:url(#SVGID_00000179619131656991323230000003302390942184935340_);}
	.st222{clip-path:url(#SVGID_00000060729443745329736310000011607409971244125853_);}
	.st223{clip-path:url(#SVGID_00000107583366439222375060000011206578508441336464_);}
	.st224{clip-path:url(#SVGID_00000142170129690814219870000005464434173173562035_);}
	.st225{clip-path:url(#SVGID_00000054267942849118491790000017237257658982681780_);}
	.st226{clip-path:url(#SVGID_00000018222628052071069760000006073254891034386820_);}
	.st227{clip-path:url(#SVGID_00000108292640304202076370000008646346653927779218_);}
	.st228{clip-path:url(#SVGID_00000030483921897400438390000003022963304289667719_);}
	.st229{clip-path:url(#SVGID_00000029759154782088893850000014226713992640846990_);}
	.st230{clip-path:url(#SVGID_00000175295417507969378230000009948812920341080995_);}
	.st231{clip-path:url(#SVGID_00000052823194094827709180000011432864321438033050_);}
	.st232{clip-path:url(#SVGID_00000003100145624964513900000017137838086482519185_);}
	.st233{clip-path:url(#SVGID_00000020395603597301591260000004662186827671196330_);}
	.st234{clip-path:url(#SVGID_00000060708585450011781910000016574339632541193634_);}
	.st235{clip-path:url(#SVGID_00000142165066341063305850000008716817973434419844_);}
	.st236{clip-path:url(#SVGID_00000099626272761280941510000007934626373628221846_);}
	.st237{clip-path:url(#SVGID_00000176745885797506996900000011374505759529831552_);}
	.st238{clip-path:url(#SVGID_00000147932003779423504280000005332838299099906177_);}
	.st239{clip-path:url(#SVGID_00000024687615298058178020000005131563621478028201_);}
	.st240{clip-path:url(#SVGID_00000054268171569537816250000003743838496536123288_);}
	.st241{clip-path:url(#SVGID_00000091734832592880703420000017595005421319075473_);}
	.st242{clip-path:url(#SVGID_00000175285356955775960540000017129138257800251819_);}
	.st243{clip-path:url(#SVGID_00000099651104606478533900000006705875743710232468_);}
	.st244{clip-path:url(#SVGID_00000097496154816553571460000004702660568158575012_);}
	.st245{clip-path:url(#SVGID_00000057826384131796435860000010033536522283291834_);}
	.st246{clip-path:url(#SVGID_00000158022438099755858310000016957635574689106869_);}
	.st247{clip-path:url(#SVGID_00000094599495723331428690000006880735414521733011_);}
	.st248{clip-path:url(#SVGID_00000056426821120724544310000016603790341219889304_);}
	.st249{clip-path:url(#SVGID_00000075848782352541304480000017329065656993374084_);}
	.st250{clip-path:url(#SVGID_00000142174039495282771310000012462527685355378836_);}
	.st251{clip-path:url(#SVGID_00000029731963331421844410000006131274813258010283_);}
	.st252{clip-path:url(#SVGID_00000102514217756837062940000011668282600293321381_);}
	.st253{clip-path:url(#SVGID_00000039816098279080291390000017612574037055889033_);}
	.st254{clip-path:url(#SVGID_00000067222077454366896710000007318681610107876011_);}
	.st255{clip-path:url(#SVGID_00000097482255285281364750000011421875137124056201_);}
	.st256{clip-path:url(#SVGID_00000112610159500802103390000006635704442509418160_);}
	.st257{clip-path:url(#SVGID_00000066515109329275841000000017251151463278261946_);}
	.st258{clip-path:url(#SVGID_00000042009915439440574370000012846963432924728483_);}
	.st259{clip-path:url(#SVGID_00000100362374705385319280000000241472281902923396_);}
	.st260{clip-path:url(#SVGID_00000124135962956380308460000010940499796780077480_);}
	.st261{clip-path:url(#SVGID_00000075871196168200572490000002178060231186553510_);}
	.st262{clip-path:url(#SVGID_00000170965650243583126850000004534274744687983798_);}
	.st263{clip-path:url(#SVGID_00000085945032447364762580000000739353810430213042_);}
	.st264{clip-path:url(#SVGID_00000139292767203870912630000007935838377510899077_);}
	.st265{clip-path:url(#SVGID_00000031176354189307927970000003445279432654370963_);}
	.st266{clip-path:url(#SVGID_00000119830416789876195940000015207630927816655548_);}
	.st267{clip-path:url(#SVGID_00000065764824113202269740000003905426642973263233_);}
	.st268{clip-path:url(#SVGID_00000026142683026364933240000003323943611146979734_);}
	.st269{clip-path:url(#SVGID_00000018208417765472437790000013486089850909977521_);}
	.st270{clip-path:url(#SVGID_00000079468078907314905370000000864007952066006681_);}
	.st271{clip-path:url(#SVGID_00000040553490395922532550000002461176927363113362_);}
	.st272{clip-path:url(#SVGID_00000011724456698919345330000001549369952480235448_);}
</style>
<g id="Laag_1">
</g>
<g id="Laag_2">
	<g>
		<g>
			<g>
				<g>
					<path class="st74" d="M525.05,206.68c-4.01,0.63-8.04,1.26-11.86,2.49c-8.34,2.67-15.47,8.2-19.72,15.28
						s-5.57,15.66-3.65,23.69c2.17,9.08,8.58,17.43,17.47,21.98c8.89,4.55,20.14,5.03,28.96,0.81c8.5-4.06,14.17-11.99,16.83-20.48
						c2.07-6.62,2.47-13.83,0.2-20.5c-1.71-5.03-8.98-11.38-12.45-14.2c-1.02-0.83-1.14-2.23-0.27-3.14l8.66-9.16
						c0.28-0.3-0.01-0.77-0.44-0.7C544.15,203.52,528.65,206.12,525.05,206.68z"/>
					<path class="st4" d="M516.49,246.06c1.43,2.66,3.28,5,6.23,5.39c2.76,0.44,5.28-1.6,4.67-4.67c0.71,0.51,1.11,1.45,1.17,2.4
						c0.2,3.22-3.21,5.5-6.2,4.94C518.51,253.7,515.81,249.66,516.49,246.06L516.49,246.06z"/>
					<path class="st4" d="M507.22,233.23c0.3,1.75,1.66,3.44,3.43,3.52c1.02,0.04,2.02-0.46,2.74-1.18c0.72-0.72,1.2-1.66,1.58-2.61
						c0.33-0.82,0.59-1.71,0.42-2.58c-0.26-1.34-1.5-2.33-2.83-2.67C508.51,226.66,506.53,229.28,507.22,233.23z"/>
					<path class="st4" d="M528.47,232.04c0.29,1.69,1.61,3.33,3.33,3.4c0.99,0.04,1.95-0.44,2.65-1.15c0.7-0.7,1.17-1.6,1.53-2.52
						c0.32-0.8,0.57-1.66,0.41-2.5c-0.25-1.3-1.46-2.25-2.74-2.58C529.72,225.67,527.81,228.21,528.47,232.04z"/>
				</g>
				<g>
					<path class="st71" d="M597.82,285.72c-12.48,4.45-26.57,3.94-39.23,0.54c-2.67-0.72-5.32-1.52-7.91-2.51
						c-1.3-0.5-2.59-1.05-3.84-1.67c-0.84-0.42-1.76-0.73-2.55-1.26c-0.24-0.16-0.91-0.52-0.85-0.87c0.05-0.28,1.45-0.63,1.71-0.71
						c2.28-0.76,4.67-1.06,7.02-1.53c3.64-0.73,10.02-2.71,9.4-7.54c-0.27-2.06-1.33-4.07-1.89-6.07c-0.74-2.67-1.18-5.41-1.33-8.18
						c-0.47-8.66,1.9-17.36,6.27-24.82c3.27-5.59,6.68-9.83,12.9-11.95c6.16-2.1,12.87-2.59,19.26-1.33
						c6.52,1.29,12.66,4.4,17.6,8.83c5.1,4.57,7.15,10.2,7.94,16.94c1.62,13.68-3.79,30.87-16.1,38.18
						C603.54,283.39,600.72,284.69,597.82,285.72z"/>
					<g>
						<path class="st4" d="M586.36,237.12c0.36-1.09,0.99-4.23-1.61-5.08c-2.32-0.77-4.7,1.79-5.62,4.57
							c-0.72,2.17-0.52,4.38,1.52,5.05C583.15,242.48,585.37,240.14,586.36,237.12z"/>
						<path class="st4" d="M600.57,241.36c0.36-1.09,0.99-4.23-1.61-5.08c-2.32-0.77-4.7,1.79-5.62,4.57
							c-0.72,2.17-0.52,4.38,1.52,5.05C597.36,246.72,599.57,244.37,600.57,241.36z"/>
						<path class="st4" d="M578.61,258.09c6.33,6.05,19.48-0.72,24.67-5.86c0.98-0.92,1.88-1.91,2.8-2.94
							c-0.53,1.27-1.25,2.46-2.05,3.61c-4.19,5.63-11.13,9.36-18.24,9.12C583.02,261.87,579.88,260.75,578.61,258.09L578.61,258.09z
							"/>
					</g>
				</g>
			</g>
		</g>
		<g>
			<path class="st71" d="M705.35,317.6v-17.52h-10.26v-9.89h-18.17v5.08c0,3.21-1.6,4.81-4.81,4.81h-3.53v17.52h7.27v17.74h-13.24
				c-4.97,0-7.4-2.54-7.4-7.62c0-5.52,2.87-11.81,8.5-19.21v-4.75l-33.01-3.86c-0.88-5.52-5.74-9.71-12.69-9.71
				c-7.51,0-12.48,4.86-12.48,12.03c0,4.53,1.99,8.83,5.3,11.48l-2.11,10.57l-20.57,6.91c-0.83,2.03-3.34,4.62-7,5.85
				c-4.5,1.51-8.73,0.02-11.67-3.88l37.36-12.55c-0.14-1.47-0.74-3.59-1.23-5.06c-5.52-16.43-21.98-24.17-38.52-18.62
				c-16.53,5.56-24.94,21.77-19.6,37.68h-2.79c-2.46,0-3.74-1.28-3.74-3.74v-32.17h-19.24v3.42c-3.74-2.99-8.33-4.7-13.68-4.7
				c-14.75,0-25.75,12.29-25.75,28.53c0,3.57,0.53,6.95,1.52,10.05h-10.13c-2.88,0-5.34-0.54-7.37-1.6
				c7.05-4.38,11.01-10.58,11.01-18.06c0-10.37-7.69-17.53-19.34-17.53c-6.63,0-12.82,2.25-17.95,5.88v-25.11h-19.24v36.76v19.66
				h-3.63c-2.89,0-5.34-0.54-7.37-1.6c7.05-4.38,11.01-10.58,11.01-18.06c0-10.37-7.69-17.53-19.34-17.53
				c-6.62,0-12.82,2.25-17.95,5.88v-17.56c-4.94-1.17-9.44-3.56-13.09-7.01c-0.19-0.18-0.36-0.36-0.54-0.54h-5.61v39.54
				c-2.89-12.73-13.81-21.7-28.23-21.7c-16.88,0-29.6,12.29-29.6,28.53c0,3.57,0.61,6.95,1.75,10.05h-2.93
				c-2.46,0-3.74-1.28-3.74-3.74v-13.47c0-12.08-8.02-19.98-20.09-19.98c-5.77,0-10.69,1.92-14.75,5.77v-25.01h-19.85v43.48
				l-18,6.05c-0.13,3.31-2.52,6.26-6.17,7.48c-5.37,1.8-10.68-0.92-12.49-6.29c-1.8-5.37,0.79-10.75,6.15-12.55
				c3.65-1.23,7.33-0.32,9.43,2.24l19.35-6.5c-5.91-12.56-20.32-18.2-34.7-13.37c-9.97,3.35-16.88,10.71-19.43,19.5
				c-8.73-12.96-32.4-10.84-32.4-17.81c0-2.56,2.99-4.06,6.41-4.06c4.06,0,7.16,2.14,7.16,5.02h20.95
				c0-13.25-12.08-23.19-27.89-23.19c-15.6,0-27.57,9.51-27.57,23.83c0,25.01,35.59,21.69,35.59,29.92c0,2.46-3.42,4.38-7.37,4.38
				c-4.6,0-8.34-2.67-8.34-5.98h-20.95c0,13.57,12.4,24.15,29.07,24.15c12.72,0,23.21-6.2,27.01-16.28
				c6.14,13.36,21.03,19.63,35.95,14.62c8.79-2.96,15.22-9.04,18.24-16.42v16.81h19.85v-29.07c0-4.92,3.31-8.12,8.23-8.12
				c4.49,0,7.37,3.1,7.37,7.91v11.22c0,12.08,6.31,18.06,18.91,18.06h34.84v-0.11c14.42,0,25.34-8.96,28.23-21.7v21.8h19.24v-12.93
				c1.39-0.11,2.67-0.21,3.95-0.32c5.77,10.9,16.46,13.25,27.46,13.25h5.88h19.24v-12.93c1.39-0.11,2.67-0.21,3.95-0.32
				c5.77,10.9,16.46,13.25,27.46,13.25h37.05l-0.08-0.11c6.79-0.05,12.43-1.57,16.43-6.3c2.99,4.27,8.33,6.41,15.82,6.41h33.02
				l-0.05-0.04c3.97,0.21,8.12-0.34,12.27-1.73c9.18-3.08,16.66-9.47,20.57-17.1l-3.77,18.85h19.54l6.73-35.77l7.4,0.99
				c-1.1,3.42-1.54,6.84-1.54,10.38c0,15.34,8.61,24.4,26.05,24.4h34.96l0-0.01c0.37,0.01,0.72,0.03,1.1,0.03h8.44v-17.53h-5.56
				c-3.1,0-4.7-1.5-4.7-4.38V317.6H705.35z M383.48,325.94v-2.89c3.85-3.85,9.72-6.73,14.11-6.73c2.46,0,3.74,0.96,3.74,2.24
				C401.33,321.98,393.96,324.76,383.48,325.94z M440.01,325.94v-2.89c3.85-3.85,9.72-6.73,14.11-6.73c2.46,0,3.74,0.96,3.74,2.24
				C457.86,321.98,450.49,324.76,440.01,325.94z M511.89,335.88c-5.66,0-9.83-4.27-9.83-9.94s4.17-9.94,9.83-9.94
				c5.66,0,9.83,4.27,9.83,9.94S517.56,335.88,511.89,335.88z M572.33,312.51c4.39-1.48,8.52,0.05,11.32,3.88l-17.79,5.98
				C565.78,317.62,568.15,313.92,572.33,312.51z M337.08,336.66c-1.34-0.13-2.7-0.27-3.99-0.61c-2.82-0.73-5.3-2.44-6.84-4.71
				c-1.54-2.28-2.14-5.1-1.66-7.81c0.55-3.06,2.53-5.96,5.4-7.63c2.87-1.68,6.6-2.05,9.62-0.81c2.9,1.19,4.94,3.72,5.98,6.5
				c0.81,2.16,1.08,4.55,0.45,6.81c-0.47,1.7-2.77,3.95-3.88,4.95c-0.32,0.29-0.34,0.76-0.03,1.05l3.05,2.88
				c0.1,0.09,0.01,0.26-0.13,0.24C343.49,337.35,338.29,336.78,337.08,336.66z"/>
			<path class="st71" d="M481.93,263.69h-2.54c-4.97,0-7.4-2.54-7.4-7.62c0-5.52,2.87-11.81,8.5-19.21v-4.75l-33.01-3.86
				c-0.88-5.52-5.74-9.71-12.69-9.71c-7.51,0-12.48,4.86-12.48,12.03c0,4.53,1.99,8.83,5.3,11.48l-2.5,12.28l-18.85,6.33
				c-0.83,2.03-3.34,4.62-7,5.85c-4.5,1.51-8.73,0.02-11.67-3.88l37.36-12.55c-0.14-1.47-0.74-3.59-1.23-5.06
				c-5.52-16.43-21.98-24.17-38.52-18.62c-9.99,3.36-17,10.6-19.82,19.32c-3.57-11.47-13.14-19.29-25.09-19.29
				c-5.52,0-10.27,1.77-14.13,4.86v-23.4h-19.87v56.96h-1.07c-2.13,0-3.86-1.73-3.86-3.86v-13.91c0-12.47-8.06-20.64-20.09-20.64
				c-7.4,0-13.47,2.76-18.1,8.17c-3.42-5.19-9.27-8.17-16.56-8.17c-5.74,0-10.6,1.88-14.57,5.52v-4.19h-19.87v37.09h-0.31
				c-1.58,0-2.99-0.99-3.52-2.48l-19.56-54.48h-24.84l-27.38,76.17h22.62l3.43-10.49h27.04l0.91,2.77l2.51,7.72h23.07v0h15.89
				v-30.37c0-4.37,3.48-8.05,7.85-8.05c4.19,0,6.95,2.98,6.95,7.51v21.23h19.87v-20.7c0-4.37,3.48-8.05,7.85-8.04
				c4.19,0.01,6.94,2.99,6.94,7.51v12.25c0,12.47,6.51,18.66,19.54,18.66h5.27h0.14h19.73v-3.53c3.86,3.09,8.61,4.86,14.13,4.86
				c12.46,0,22.33-8.49,25.51-20.76c1.64,4.61,4.22,8.53,7.48,11.61c7.72,7.3,19.2,9.92,30.7,6.05c7.52-2.53,13.9-7.27,18.11-13.1
				l-1.06,5.2h19.54l5.15-27.25l7.4,0.99c-1.1,3.42-1.54,6.85-1.54,10.38c0,12.47,5.68,20.78,17.17,23.46
				c4.37,1.02,8.92,0.93,13.31,0.02l6.91-1.43L481.93,263.69z M168.77,254.14l7.4-22.84l7.28,22.84H168.77z M348.09,260.65
				c-1.54,2.28-4.02,3.98-6.84,4.71c-1.29,0.34-2.65,0.47-3.99,0.6c-1.22,0.12-6.47,0.7-7.99,0.87c-0.13,0.02-0.2-0.15-0.11-0.24
				l3.05-2.88c0.3-0.29,0.29-0.76-0.03-1.05c-1.1-1-3.4-3.25-3.88-4.95c-0.63-2.26-0.36-4.65,0.45-6.81c1.04-2.77,3.08-5.3,5.98-6.5
				c3.01-1.24,6.74-0.87,9.62,0.81c2.87,1.68,4.85,4.58,5.4,7.63C350.23,255.55,349.63,258.37,348.09,260.65z M390.44,241.99
				c4.39-1.48,8.52,0.05,11.32,3.88l-17.79,5.98C383.89,247.11,386.25,243.4,390.44,241.99z"/>
		</g>
		<g>
			<g>
				<path class="st74" d="M138,391.32c-0.58-0.61-0.87-1.53-0.87-2.75v-17.38h5.71v17.29l-1.35-1.35h10.79v5.11H140.8
					C139.52,392.24,138.58,391.93,138,391.32z"/>
				<path class="st74" d="M165.41,391.32c-1.21-0.81-2.13-2.02-2.74-3.62c-0.61-1.6-0.92-3.61-0.92-6.01s0.31-4.4,0.92-6
					c0.61-1.59,1.52-2.79,2.74-3.59c1.21-0.8,2.71-1.2,4.49-1.2s3.28,0.4,4.5,1.2c1.21,0.8,2.12,2,2.74,3.59
					c0.61,1.59,0.92,3.59,0.92,6s-0.31,4.41-0.92,6.01c-0.61,1.6-1.52,2.81-2.74,3.62c-1.21,0.81-2.71,1.22-4.5,1.22
					S166.62,392.13,165.41,391.32z M171.3,386.67c0.33-0.4,0.56-1,0.69-1.79c0.13-0.79,0.2-1.84,0.2-3.14c0-1.3-0.07-2.36-0.2-3.16
					c-0.13-0.8-0.36-1.41-0.69-1.82c-0.33-0.41-0.8-0.62-1.4-0.62c-0.6,0-1.07,0.21-1.4,0.62c-0.33,0.41-0.56,1.02-0.69,1.82
					c-0.13,0.8-0.2,1.85-0.2,3.16c0,1.3,0.07,2.35,0.2,3.14c0.13,0.79,0.36,1.39,0.69,1.79c0.33,0.4,0.8,0.6,1.4,0.6
					C170.5,387.28,170.97,387.08,171.3,386.67z"/>
				<path class="st74" d="M191.16,391.32c-1.26-0.81-2.22-2.02-2.87-3.64c-0.65-1.61-0.98-3.61-0.98-6c0-2.38,0.33-4.38,0.98-5.98
					c0.65-1.6,1.6-2.81,2.86-3.61c1.25-0.8,2.78-1.2,4.59-1.2c2.31,0,4.12,0.67,5.44,2c1.32,1.33,2.15,3.18,2.5,5.55h-5.95
					c-0.12-0.88-0.34-1.52-0.65-1.91c-0.31-0.39-0.76-0.59-1.34-0.59c-0.62,0-1.12,0.21-1.49,0.63c-0.37,0.42-0.64,1.06-0.81,1.91
					s-0.26,1.94-0.26,3.26c0,1.34,0.09,2.45,0.26,3.31s0.44,1.51,0.81,1.94c0.37,0.43,0.87,0.65,1.49,0.65
					c0.54,0,0.99-0.14,1.34-0.44c0.35-0.29,0.61-0.74,0.78-1.35c0.17-0.61,0.24-1.4,0.2-2.36l1.17,1.41h-3.43v-4.3h8.18
					c0,2.49-0.26,4.6-0.77,6.36c-0.51,1.75-1.37,3.12-2.59,4.1c-1.21,0.98-2.84,1.47-4.89,1.47
					C193.94,392.54,192.42,392.13,191.16,391.32z"/>
				<path class="st74" d="M216.52,391.32c-1.21-0.81-2.13-2.02-2.74-3.62c-0.61-1.6-0.92-3.61-0.92-6.01s0.31-4.4,0.92-6
					c0.61-1.59,1.52-2.79,2.74-3.59c1.21-0.8,2.71-1.2,4.49-1.2s3.28,0.4,4.5,1.2c1.21,0.8,2.12,2,2.74,3.59
					c0.61,1.59,0.92,3.59,0.92,6s-0.31,4.41-0.92,6.01c-0.61,1.6-1.52,2.81-2.74,3.62c-1.21,0.81-2.71,1.22-4.5,1.22
					S217.73,392.13,216.52,391.32z M222.41,386.67c0.33-0.4,0.56-1,0.69-1.79c0.13-0.79,0.2-1.84,0.2-3.14c0-1.3-0.07-2.36-0.2-3.16
					c-0.13-0.8-0.36-1.41-0.69-1.82c-0.33-0.41-0.8-0.62-1.4-0.62c-0.6,0-1.07,0.21-1.4,0.62c-0.33,0.41-0.56,1.02-0.69,1.82
					c-0.13,0.8-0.2,1.85-0.2,3.16c0,1.3,0.07,2.35,0.2,3.14c0.13,0.79,0.36,1.39,0.69,1.79c0.33,0.4,0.8,0.6,1.4,0.6
					C221.62,387.28,222.08,387.08,222.41,386.67z"/>
				<path class="st74" d="M239.35,371.19h6.52c2.89,0,5.12,0.66,6.71,1.97c1.58,1.31,2.37,3.27,2.37,5.88c0,2.55-0.8,4.48-2.39,5.8
					c-1.59,1.32-3.82,1.98-6.69,1.98h-1.29v-4.81h0.66c1.14,0,2.06-0.24,2.77-0.71c0.7-0.47,1.05-1.23,1.05-2.27
					c0-1.06-0.35-1.83-1.05-2.31c-0.7-0.48-1.62-0.72-2.77-0.72h-1.53l1.35-1.59v17.83h-5.71V371.19z"/>
				<path class="st74" d="M265.95,391.2c-0.69-0.69-1.04-1.57-1.04-2.63v-17.38h14.46v5.11h-10.1l1.35-1.35v13.53l-1.35-1.35h10.1
					v5.11h-10.79C267.51,392.24,266.64,391.89,265.95,391.2z M270.14,379.46h7.91v4.39h-7.91V379.46z"/>
				<path class="st74" d="M290.46,371.19h3.97c2.2,0,4.15,0.31,5.83,0.92c1.68,0.61,3.03,1.69,4.04,3.23
					c1.01,1.54,1.52,3.66,1.52,6.34c0,2.69-0.51,4.81-1.52,6.36c-1.01,1.55-2.36,2.64-4.04,3.26c-1.68,0.62-3.63,0.93-5.83,0.93
					h-3.97V371.19z M298.4,386.63c0.46-0.33,0.84-0.89,1.13-1.68c0.29-0.79,0.44-1.85,0.44-3.17c0-1.32-0.15-2.39-0.44-3.2
					c-0.29-0.81-0.67-1.39-1.13-1.74c-0.46-0.35-0.97-0.53-1.53-0.53h-0.69v10.82h0.69C297.43,387.12,297.94,386.96,298.4,386.63z"
					/>
				<path class="st74" d="M316.64,371.19h5.71v21.05h-5.71V371.19z"/>
				<path class="st74" d="M334.49,391.2c-0.69-0.69-1.04-1.57-1.04-2.63v-17.38h14.46v5.11h-10.1l1.35-1.35v13.53l-1.35-1.35h10.1
					v5.11h-10.79C336.06,392.24,335.18,391.89,334.49,391.2z M338.68,379.46h7.91v4.39h-7.91V379.46z"/>
			</g>
		</g>
	</g>
</g>
<g id="business_card">
</g>
</svg>
